<?xml version="1.0" encoding="UTF-8"?>
<svg width="315px" height="742px" viewBox="0 0 315 742" version="1.1" xmlns="http://www.w3.org/2000/svg" xmlns:xlink="http://www.w3.org/1999/xlink">
    <!-- Generator: Sketch 49.1 (51147) - http://www.bohemiancoding.com/sketch -->
    <title>Artboard</title>
    <desc>Created with Sketch.</desc>
    <defs></defs>
    <g id="Artboard" stroke="none" stroke-width="1" fill="none" fill-rule="evenodd">
        <g id="4" transform="translate(22.000000, 14.000000)">
            <path d="M191.5,623.5 L74,673.557356" id="Line" stroke="#898989" stroke-width="2" stroke-linecap="square"></path>
            <path d="M190.5,573.5 L75.5,612.5" id="Line" stroke="#898989" stroke-width="2" stroke-linecap="square"></path>
            <path d="M189.5,530.5 L75.5,561.5" id="Line" stroke="#898989" stroke-width="2" stroke-linecap="square"></path>
            <path d="M189.5,530.5 L75.5,477.5" id="Line" stroke="#898989" stroke-width="2" stroke-linecap="square"></path>
            <path d="M134,518 L75.5,561.5" id="Line" stroke="#898989" stroke-width="2" stroke-linecap="square"></path>
            <path d="M132,675 L75.5,561.5" id="Line" stroke="#898989" stroke-width="2" stroke-linecap="square"></path>
            <path d="M189.5,616.5 L74.5,610.5" id="Line" stroke="#898989" stroke-width="2" stroke-linecap="square"></path>
            <path d="M15.5,550.5 L74.5,610.5" id="Line" stroke="#898989" stroke-width="2" stroke-linecap="square"></path>
            <path d="M15.5,381.5 L133.5,353.5" id="Line" stroke="#898989" stroke-width="2" stroke-linecap="square"></path>
            <path d="M15.5,550.5 L190.5,434.5" id="Line" stroke="#898989" stroke-width="2" stroke-linecap="square"></path>
            <path d="M74.5,395.5 L190.5,360.5" id="Line" stroke="#898989" stroke-width="2" stroke-linecap="square"></path>
            <path d="M15.5,380.5 L132.5,520.5" id="Line" stroke="#898989" stroke-width="2" stroke-linecap="square"></path>
            <path d="M15.5,350.5 L74.5,396.5" id="Line" stroke="#898989" stroke-width="2" stroke-linecap="square"></path>
            <path d="M15.5,350.5 L192,315" id="Line" stroke="#898989" stroke-width="2" stroke-linecap="square"></path>
            <path d="M16,246 L192,315" id="Line" stroke="#898989" stroke-width="2" stroke-linecap="square"></path>
            <path d="M16,246 L76,225" id="Line" stroke="#898989" stroke-width="2" stroke-linecap="square"></path>
            <path d="M16,246 L75,194" id="Line" stroke="#898989" stroke-width="2" stroke-linecap="square"></path>
            <path d="M17,182 L75,194" id="Line" stroke="#898989" stroke-width="2" stroke-linecap="square"></path>
            <path d="M17,152 L75,164" id="Line" stroke="#898989" stroke-width="2" stroke-linecap="square"></path>
            <path d="M17,152 L76,132" id="Line" stroke="#898989" stroke-width="2" stroke-linecap="square"></path>
            <path d="M74,261 L190,240" id="Line" stroke="#898989" stroke-width="2" stroke-linecap="square"></path>
            <path d="M131,354 L190,209" id="Line" stroke="#898989" stroke-width="2" stroke-linecap="square"></path>
            <path d="M131,199 L190,84" id="Line" stroke="#898989" stroke-width="2" stroke-linecap="square"></path>
            <path d="M75,60 L190,84" id="Line" stroke="#898989" stroke-width="2" stroke-linecap="square"></path>
            <path d="M131,199 L190,209" id="Line" stroke="#898989" stroke-width="2" stroke-linecap="square"></path>
            <path d="M74,164 L191,127" id="Line" stroke="#898989" stroke-width="2" stroke-linecap="square"></path>
            <path d="M74,164 L131,200" id="Line" stroke="#898989" stroke-width="2" stroke-linecap="square"></path>
            <path d="M15.5,350.5 L76,302" id="Line" stroke="#898989" stroke-width="2" stroke-linecap="square"></path>
            <path d="M17.5,411.5 L190.5,434.5" id="Line" stroke="#898989" stroke-width="2" stroke-linecap="square"></path>
            <path d="M73.5,393.5 L190.5,434.5" id="Line" stroke="#898989" stroke-width="2" stroke-linecap="square"></path>
            <path d="M15.5,0.759299781 L15.5,693.300642" id="Line" stroke="#898989" stroke-width="3" stroke-linecap="square"></path>
            <path d="M73.5,0.759299781 L73.5,693.300642" id="Line" stroke="#898989" stroke-width="3" stroke-linecap="square"></path>
            <path d="M131.5,0.759299781 L131.5,693.300642" id="Line" stroke="#898989" stroke-width="3" stroke-linecap="square"></path>
            <path d="M189.5,0.759299781 L189.5,693.300642" id="Line" stroke="#898989" stroke-width="3" stroke-linecap="square"></path>
            <circle id="Oval" stroke="#898989" stroke-width="2" fill="#FFFFFF" cx="15" cy="674" r="15"></circle>
            <circle id="Oval" stroke="#898989" stroke-width="2" fill="#FFFFFF" cx="15" cy="552" r="15"></circle>
            <circle id="Oval" stroke="#898989" stroke-width="2" fill="#FFFFFF" cx="15" cy="412" r="15"></circle>
            <circle id="Oval" stroke="#898989" stroke-width="2" fill="#FFFFFF" cx="15" cy="381" r="15"></circle>
            <circle id="Oval" stroke="#898989" stroke-width="2" fill="#FFFFFF" cx="15" cy="350" r="15"></circle>
            <circle id="Oval" stroke="#898989" stroke-width="2" fill="#FFFFFF" cx="15" cy="246" r="15"></circle>
            <circle id="Oval" stroke="#898989" stroke-width="2" fill="#FFFFFF" cx="15" cy="182" r="15"></circle>
            <circle id="Oval" stroke="#898989" stroke-width="2" fill="#FFFFFF" cx="15" cy="151" r="15"></circle>
            <circle id="Oval" stroke="#898989" stroke-width="2" fill="#FFFFFF" cx="74" cy="674" r="15"></circle>
            <circle id="Oval" stroke="#898989" stroke-width="2" fill="#FFFFFF" cx="74" cy="612" r="15"></circle>
            <circle id="Oval" stroke="#898989" stroke-width="2" fill="#FFFFFF" cx="74" cy="560" r="15"></circle>
            <circle id="Oval" stroke="#898989" stroke-width="2" fill="#FFFFFF" cx="74" cy="478" r="15"></circle>
            <circle id="Oval" stroke="#898989" stroke-width="2" fill="#FFFFFF" cx="74" cy="394" r="15"></circle>
            <circle id="Oval" stroke="#898989" stroke-width="2" fill="#FFFFFF" cx="74" cy="303" r="15"></circle>
            <circle id="Oval" stroke="#898989" stroke-width="2" fill="#FFFFFF" cx="74" cy="261" r="15"></circle>
            <circle id="Oval" stroke="#898989" stroke-width="2" fill="#FFFFFF" cx="74" cy="225" r="15"></circle>
            <circle id="Oval" stroke="#898989" stroke-width="2" fill="#FFFFFF" cx="74" cy="195" r="15"></circle>
            <circle id="Oval" stroke="#898989" stroke-width="2" fill="#FFFFFF" cx="74" cy="164" r="15"></circle>
            <circle id="Oval" stroke="#898989" stroke-width="2" fill="#FFFFFF" cx="74" cy="132" r="15"></circle>
            <circle id="Oval" stroke="#898989" stroke-width="2" fill="#FFFFFF" cx="74" cy="60" r="15"></circle>
            <circle id="Oval" stroke="#898989" stroke-width="2" fill="#FFFFFF" cx="132" cy="674" r="15"></circle>
            <circle id="Oval" stroke="#898989" stroke-width="2" fill="#FFFFFF" cx="132" cy="520" r="15"></circle>
            <circle id="Oval" stroke="#898989" stroke-width="2" fill="#FFFFFF" cx="132" cy="354" r="15"></circle>
            <circle id="Oval" stroke="#898989" stroke-width="2" fill="#FFFFFF" cx="132" cy="199" r="15"></circle>
            <circle id="Oval" stroke="#898989" stroke-width="2" fill="#FFFFFF" cx="190" cy="674" r="15"></circle>
            <circle id="Oval" stroke="#898989" stroke-width="2" fill="#FFFFFF" cx="190" cy="624" r="15"></circle>
            <circle id="Oval" stroke="#898989" stroke-width="2" fill="#FFFFFF" cx="190" cy="574" r="15"></circle>
            <circle id="Oval" stroke="#898989" stroke-width="2" fill="#FFFFFF" cx="190" cy="530" r="15"></circle>
            <circle id="Oval" stroke="#898989" stroke-width="2" fill="#FFFFFF" cx="190" cy="435" r="15"></circle>
            <circle id="Oval" stroke="#898989" stroke-width="2" fill="#FFFFFF" cx="190" cy="361" r="15"></circle>
            <circle id="Oval" stroke="#898989" stroke-width="2" fill="#FFFFFF" cx="190" cy="316" r="15"></circle>
            <circle id="Oval" stroke="#898989" stroke-width="2" fill="#FFFFFF" cx="190" cy="240" r="15"></circle>
            <circle id="Oval" stroke="#898989" stroke-width="2" fill="#FFFFFF" cx="190" cy="209" r="15"></circle>
            <circle id="Oval" stroke="#898989" stroke-width="2" fill="#FFFFFF" cx="190" cy="128" r="15"></circle>
            <circle id="Oval" stroke="#898989" stroke-width="2" fill="#FFFFFF" cx="190" cy="85" r="15"></circle>
            <path d="M18.7709961,709.537109 C18.7709961,710.953458 18.3071335,712.038896 17.3793945,712.793457 C16.4516555,713.548018 15.1311935,713.925293 13.4179688,713.925293 L12.0078125,713.925293 L12.0078125,719 L9.79052734,719 L9.79052734,705.436523 L13.6962891,705.436523 C15.390959,705.436523 16.6603962,705.782874 17.5046387,706.475586 C18.3488812,707.168298 18.7709961,708.188795 18.7709961,709.537109 Z M12.0078125,712.060547 L13.1860352,712.060547 C14.3240617,712.060547 15.1590143,711.862632 15.690918,711.466797 C16.2228217,711.070962 16.4887695,710.452478 16.4887695,709.611328 C16.4887695,708.832027 16.2506534,708.250653 15.7744141,707.867188 C15.2981747,707.483722 14.5559946,707.291992 13.5478516,707.291992 L12.0078125,707.291992 L12.0078125,712.060547 Z M79.5219727,712.199707 C79.5219727,713.844898 79.2080923,715.2303 78.5803223,716.355957 C77.9525522,717.481614 77.038743,718.273272 75.8388672,718.730957 L79.0859375,722.228516 L76.0986328,722.228516 L73.5380859,719.185547 L73.1762695,719.185547 C71.1290588,719.185547 69.5565647,718.577887 68.4587402,717.362549 C67.3609157,716.147211 66.8120117,714.420096 66.8120117,712.181152 C66.8120117,709.942209 67.3640082,708.222825 68.4680176,707.022949 C69.572027,705.823073 71.1476135,705.223145 73.1948242,705.223145 C75.2111103,705.223145 76.7696885,705.832351 77.8706055,707.050781 C78.9715224,708.269212 79.5219727,709.985503 79.5219727,712.199707 Z M69.168457,712.199707 C69.168457,713.869637 69.5055305,715.135982 70.1796875,715.998779 C70.8538445,716.861577 71.8526952,717.292969 73.1762695,717.292969 C74.4936589,717.292969 75.487871,716.866215 76.1589355,716.012695 C76.8300001,715.159175 77.1655273,713.888192 77.1655273,712.199707 C77.1655273,710.535962 76.8330925,709.274256 76.1682129,708.414551 C75.5033333,707.554846 74.5122136,707.125 73.1948242,707.125 C71.865065,707.125 70.8615757,707.554846 70.1843262,708.414551 C69.5070767,709.274256 69.168457,710.535962 69.168457,712.199707 Z M130.652344,711.745117 L132.192383,711.745117 C133.225266,711.745117 133.97363,711.553387 134.4375,711.169922 C134.90137,710.786456 135.133301,710.217452 135.133301,709.462891 C135.133301,708.69596 134.882815,708.145509 134.381836,707.811523 C133.880857,707.477537 133.126307,707.310547 132.118164,707.310547 L130.652344,707.310547 L130.652344,711.745117 Z M130.652344,713.582031 L130.652344,719 L128.435059,719 L128.435059,705.436523 L132.266602,705.436523 C134.016936,705.436523 135.312659,705.76432 136.153809,706.419922 C136.994959,707.075524 137.415527,708.065098 137.415527,709.388672 C137.415527,711.077157 136.537281,712.280107 134.780762,712.997559 L138.612305,719 L136.088867,719 L132.841797,713.582031 L130.652344,713.582031 Z M194.399902,715.316895 C194.399902,716.522955 193.963872,717.469235 193.091797,718.155762 C192.219722,718.842289 191.016772,719.185547 189.48291,719.185547 C187.949048,719.185547 186.693527,718.947431 185.716309,718.471191 L185.716309,716.374512 C186.334801,716.665203 186.99194,716.894042 187.687744,717.061035 C188.383548,717.228028 189.03141,717.311523 189.631348,717.311523 C190.509607,717.311523 191.157469,717.144533 191.574951,716.810547 C191.992434,716.476561 192.201172,716.02816 192.201172,715.465332 C192.201172,714.958168 192.009442,714.528322 191.625977,714.175781 C191.242511,713.82324 190.450852,713.405764 189.250977,712.92334 C188.013991,712.422361 187.14193,711.850264 186.634766,711.207031 C186.127602,710.563799 185.874023,709.790695 185.874023,708.887695 C185.874023,707.755854 186.276038,706.865238 187.080078,706.21582 C187.884119,705.566403 188.963372,705.241699 190.317871,705.241699 C191.616706,705.241699 192.909336,705.526202 194.195801,706.095215 L193.490723,707.904297 C192.284662,707.397133 191.208501,707.143555 190.262207,707.143555 C189.544756,707.143555 189.00049,707.299722 188.629395,707.612061 C188.258299,707.924399 188.072754,708.337237 188.072754,708.850586 C188.072754,709.203127 188.146972,709.504637 188.29541,709.755127 C188.443848,710.005616 188.688149,710.242186 189.02832,710.464844 C189.368491,710.687501 189.98079,710.981281 190.865234,711.346191 C191.861008,711.760581 192.590818,712.147134 193.054688,712.505859 C193.518557,712.864585 193.858723,713.269692 194.075195,713.721191 C194.291668,714.172691 194.399902,714.704587 194.399902,715.316895 Z" id="PQRS" fill="#2D2D2D"></path>
        </g>
    </g>
</svg>