<svg xmlns="http://www.w3.org/2000/svg" version="1.1" xmlns:xlink="http://www.w3.org/1999/xlink" xmlns:svgjs="http://svgjs.dev/svgjs" width="2000" height="222" viewBox="0 0 2000 222"><g transform="matrix(1,0,0,1,-1.2121212121212466,1.0439517212284244)"><svg viewBox="0 0 396 44" data-background-color="#ffffff" preserveAspectRatio="xMidYMid meet" height="222" width="2000" xmlns="http://www.w3.org/2000/svg" xmlns:xlink="http://www.w3.org/1999/xlink"><g id="tight-bounds" transform="matrix(1,0,0,1,0.2400000000000091,-0.2069093501533814)"><svg viewBox="0 0 395.52 44.41381870030677" height="44.41381870030677" width="395.52"><g><svg viewBox="0 0 468.5724135076549 52.61703636097836" height="44.41381870030677" width="395.52"><g><rect width="3.4334722429917166" height="45.68773055946022" x="60.63079403170063" y="3.46465290075907" fill="#64b5f6" opacity="1" stroke-width="0" stroke="transparent" fill-opacity="1" class="rect-i$-0" data-fill-palette-color="primary" rx="1%" id="i$-0" data-palette-color="#64b5f6"></rect></g><g transform="matrix(1,0,0,1,73.05241350765495,7.271963780714088)"><svg viewBox="0 0 395.52 38.073108799550184" height="38.073108799550184" width="395.52"><g id="textblocktransform"><svg viewBox="0 0 395.52 38.073108799550184" height="38.073108799550184" width="395.52" id="textblock"><g><svg viewBox="0 0 395.52 38.073108799550184" height="38.073108799550184" width="395.52"><g transform="matrix(1,0,0,1,0,0)"><svg width="395.52" viewBox="6.4 -42 444.6 42.8" height="38.073108799550184" data-palette-color="#64b5f6"><path d="M11.48 0L6.4 0 6.4-41.25 11.48-41.25 11.48-22.9 31.88-22.9 31.88-41.25 36.95-41.25 36.95 0 31.88 0 31.88-18.45 11.48-18.45 11.48 0ZM50.85 0L45.4 0 61.72-41.25 66.45-41.25 82.77 0 77.3 0 72.72-12.03 55.45-12.03 50.85 0ZM64.07-34.48L57.17-16.5 71-16.5 64.07-34.48ZM100.65 0.8L100.65 0.8Q97.55 0.8 95.12-0.06 92.7-0.93 90.95-2.18 89.2-3.43 88.07-4.64 86.95-5.85 86.42-6.55L86.42-6.55 89.2-10.5Q89.77-9.8 90.75-8.7 91.72-7.6 93.15-6.5 94.57-5.4 96.47-4.65 98.37-3.9 100.77-3.9L100.77-3.9Q103.05-3.9 104.9-4.7 106.75-5.5 107.86-7.08 108.97-8.65 108.97-10.98L108.97-10.98Q108.97-12.95 108.17-14.34 107.37-15.73 105.95-16.73 104.52-17.73 102.62-18.56 100.72-19.4 98.52-20.25L98.52-20.25Q96.97-20.88 95.37-21.71 93.77-22.55 92.42-23.76 91.07-24.98 90.25-26.65 89.42-28.33 89.42-30.6L89.42-30.6Q89.42-32.9 90.3-34.95 91.17-37 92.77-38.59 94.37-40.18 96.58-41.09 98.8-42 101.5-42L101.5-42Q103.9-42 106.03-41.25 108.17-40.5 109.85-39.34 111.52-38.18 112.52-36.9L112.52-36.9 110.15-33.18Q109.32-34.25 108.05-35.21 106.77-36.18 105.12-36.77 103.47-37.38 101.57-37.38L101.57-37.38Q99.25-37.38 97.63-36.41 96.02-35.45 95.17-33.93 94.32-32.4 94.32-30.68L94.32-30.68Q94.32-29.13 94.96-28.05 95.6-26.98 96.67-26.23 97.75-25.48 99.1-24.9 100.45-24.33 101.87-23.8L101.87-23.8Q104.42-22.8 106.7-21.74 108.97-20.68 110.7-19.26 112.42-17.85 113.41-15.88 114.4-13.9 114.4-11.1L114.4-11.1Q114.4-7.33 112.61-4.66 110.82-2 107.72-0.6 104.62 0.8 100.65 0.8ZM129.44 0L124.37 0 124.37-41.25 129.44-41.25 129.44-22.9 149.84-22.9 149.84-41.25 154.92-41.25 154.92 0 149.84 0 149.84-18.45 129.44-18.45 129.44 0ZM185.37 0.8L185.37 0.8Q181.09 0.8 177.4-0.84 173.72-2.48 170.95-5.4 168.19-8.33 166.64-12.21 165.09-16.1 165.09-20.6L165.09-20.6Q165.09-24.8 166.49-28.65 167.89-32.5 170.56-35.5 173.24-38.5 177.08-40.25 180.91-42 185.76-42L185.76-42Q188.81-42 191.63-41.26 194.44-40.53 196.87-39.18 199.29-37.83 201.16-35.98L201.16-35.98 198.64-32.08Q196.34-34.55 192.93-36.01 189.51-37.48 185.76-37.48L185.76-37.48Q182.14-37.48 179.31-36.15 176.49-34.83 174.54-32.5 172.59-30.18 171.58-27.18 170.56-24.18 170.56-20.8L170.56-20.8Q170.56-17.15 171.7-14.06 172.84-10.98 174.89-8.68 176.94-6.38 179.66-5.11 182.39-3.85 185.54-3.85L185.54-3.85Q188.09-3.85 190.51-4.7 192.94-5.55 194.88-7.14 196.81-8.72 197.95-10.93 199.09-13.13 199.09-15.83L199.09-15.83 199.09-17.03 185.19-17.03 185.19-21.05 204.29-21.05 204.29-16.6Q204.29-12.4 202.66-9.16 201.04-5.93 198.3-3.71 195.56-1.5 192.2-0.35 188.84 0.8 185.37 0.8ZM219.24 0L214.16 0 214.16-41.25 225.86-41.25Q229.96-41.25 232.96-39.83 235.96-38.4 237.6-35.74 239.24-33.08 239.24-29.35L239.24-29.35Q239.24-26.1 237.96-23.58 236.69-21.05 234.32-19.45 231.96-17.85 228.69-17.35L228.69-17.35 242.34 0 235.89 0 223.11-16.82 219.24-16.82 219.24 0ZM219.24-37.15L219.24-21.15 224.49-21.15Q227.44-21.15 229.56-22.13 231.69-23.1 232.84-24.91 233.99-26.73 233.99-29.23L233.99-29.23Q233.99-32.95 231.47-35.05 228.96-37.15 224.49-37.15L224.49-37.15 219.24-37.15ZM251.03 0L245.59 0 261.91-41.25 266.63-41.25 282.96 0 277.49 0 272.91-12.03 255.63-12.03 251.03 0ZM264.26-34.48L257.36-16.5 271.19-16.5 264.26-34.48ZM296.48 0L291.41 0 291.41-41.25 303.11-41.25Q307.16-41.25 310.16-39.85 313.16-38.45 314.82-35.8 316.48-33.15 316.48-29.35L316.48-29.35Q316.48-25.6 314.82-22.81 313.16-20.03 310.16-18.5 307.16-16.98 303.11-16.98L303.11-16.98 296.48-16.98 296.48 0ZM296.48-37.15L296.48-21.15 301.73-21.15Q304.53-21.15 306.67-22.1 308.81-23.05 310.02-24.85 311.23-26.65 311.23-29.23L311.23-29.23Q311.23-31.83 310.02-33.59 308.81-35.35 306.67-36.25 304.53-37.15 301.73-37.15L301.73-37.15 296.48-37.15ZM331.06 0L325.98 0 325.98-41.25 331.06-41.25 331.06-22.9 351.45-22.9 351.45-41.25 356.53-41.25 356.53 0 351.45 0 351.45-18.45 331.06-18.45 331.06 0ZM374.4 0L369.33 0 369.33-41.25 374.4-41.25 374.4 0ZM405.38 0.8L405.38 0.8Q400.73 0.8 396.71-0.84 392.7-2.48 389.69-5.39 386.68-8.3 385-12.2 383.32-16.1 383.32-20.6L383.32-20.6Q383.32-25.1 385.01-29 386.7-32.9 389.7-35.81 392.7-38.73 396.7-40.36 400.7-42 405.35-42L405.35-42Q409.2-42 412.61-40.89 416.03-39.78 418.57-37.85L418.57-37.85 416.28-33.58Q414.23-35.23 411.48-36.11 408.73-37 405.68-37L405.68-37Q402-37 398.93-35.75 395.85-34.5 393.59-32.26 391.32-30.03 390.09-27.04 388.85-24.05 388.85-20.6L388.85-20.6Q388.85-17.15 390.09-14.16 391.32-11.18 393.59-8.94 395.85-6.7 398.93-5.45 402-4.2 405.68-4.2L405.68-4.2Q408.73-4.2 411.48-5.09 414.23-5.98 416.28-7.63L416.28-7.63 418.57-3.35Q416.07-1.48 412.68-0.34 409.28 0.8 405.38 0.8ZM437.25 0.8L437.25 0.8Q434.15 0.8 431.72-0.06 429.3-0.93 427.55-2.18 425.8-3.43 424.67-4.64 423.55-5.85 423.02-6.55L423.02-6.55 425.8-10.5Q426.37-9.8 427.35-8.7 428.32-7.6 429.75-6.5 431.17-5.4 433.07-4.65 434.97-3.9 437.37-3.9L437.37-3.9Q439.65-3.9 441.5-4.7 443.35-5.5 444.46-7.08 445.57-8.65 445.57-10.98L445.57-10.98Q445.57-12.95 444.77-14.34 443.97-15.73 442.55-16.73 441.12-17.73 439.22-18.56 437.32-19.4 435.12-20.25L435.12-20.25Q433.57-20.88 431.97-21.71 430.37-22.55 429.02-23.76 427.67-24.98 426.85-26.65 426.02-28.33 426.02-30.6L426.02-30.6Q426.02-32.9 426.9-34.95 427.77-37 429.37-38.59 430.97-40.18 433.19-41.09 435.4-42 438.1-42L438.1-42Q440.5-42 442.63-41.25 444.77-40.5 446.45-39.34 448.12-38.18 449.12-36.9L449.12-36.9 446.75-33.18Q445.92-34.25 444.65-35.21 443.37-36.18 441.72-36.77 440.07-37.38 438.17-37.38L438.17-37.38Q435.85-37.38 434.24-36.41 432.62-35.45 431.77-33.93 430.92-32.4 430.92-30.68L430.92-30.68Q430.92-29.13 431.56-28.05 432.2-26.98 433.27-26.23 434.35-25.48 435.7-24.9 437.05-24.33 438.47-23.8L438.47-23.8Q441.02-22.8 443.3-21.74 445.57-20.68 447.3-19.26 449.02-17.85 450.01-15.88 451-13.9 451-11.1L451-11.1Q451-7.33 449.21-4.66 447.42-2 444.32-0.6 441.22 0.8 437.25 0.8Z" opacity="1" transform="matrix(1,0,0,1,0,0)" fill="#64b5f6" class="undefined-text-0" data-fill-palette-color="primary" id="text-0"></path></svg></g></svg></g></svg></g></svg></g><g><svg viewBox="0 0 51.64264679873802 52.61703636097836" height="52.61703636097836" width="51.64264679873802"><g><svg xmlns:x="http://ns.adobe.com/Extensibility/1.0/" xmlns:i="http://ns.adobe.com/AdobeIllustrator/10.0/" xmlns:graph="http://ns.adobe.com/Graphs/1.0/" xmlns="http://www.w3.org/2000/svg" xmlns:xlink="http://www.w3.org/1999/xlink" version="1.1" x="0" y="0" viewBox="5 5 53 54" enable-background="new 0 0 64 64" xml:space="preserve" height="52.61703636097836" width="51.64264679873802" class="icon-icon-0" data-fill-palette-color="accent" id="icon-0"><g fill="#64b5f6" data-fill-palette-color="accent"><g fill="#64b5f6" data-fill-palette-color="accent"><path d="M51 5H32v10h2c1.103 0 2 0.897 2 2s-0.897 2-2 2h-2v12h6.343c0.825 2.328 3.05 4 5.657 4s4.832-1.672 5.657-4H58V12C58 8.14 54.859 5 51 5zM54 27h-8v2c0 1.103-0.897 2-2 2s-2-0.897-2-2v-2h-6v-4.343c2.328-0.825 4-3.05 4-5.657s-1.672-4.832-4-5.657V9h15c1.654 0 3 1.346 3 3V27z" fill="#64b5f6" data-fill-palette-color="accent"></path><path d="M34.454 39c0 0.701-0.571 1.272-1.272 1.272-0.702 0-1.272-0.571-1.272-1.272v-2H27v-2.939c1.918-0.789 3.273-2.679 3.273-4.879 0-2.2-1.354-4.089-3.273-4.878V19H11.091C7.732 19 5 21.732 5 25.091v27.818C5 56.268 7.732 59 11.091 59h27.818C42.268 59 45 56.268 45 52.909V37H34.454V39zM9 25.091C9 23.938 9.938 23 11.091 23H23v4.909h2c0.702 0 1.273 0.571 1.273 1.272 0 0.702-0.571 1.273-1.273 1.273h-2V37h-1.303c-0.789-1.919-2.679-3.272-4.878-3.272-2.2 0-4.089 1.354-4.879 3.272H9V25.091zM23 43.939c-1.918 0.79-3.273 2.679-3.273 4.879s1.354 4.089 3.273 4.879V55H11.091C9.938 55 9 54.062 9 52.909V41h6.545v-2c0-0.701 0.571-1.272 1.273-1.272 0.702 0 1.272 0.571 1.272 1.272v2H23V43.939zM38.061 41H41v11.909C41 54.062 40.062 55 38.909 55H27v-4.909h-2c-0.702 0-1.273-0.571-1.273-1.272s0.571-1.272 1.273-1.272h2V41h1.303c0.789 1.919 2.679 3.272 4.878 3.272C35.382 44.272 37.271 42.919 38.061 41z" fill="#64b5f6" data-fill-palette-color="accent"></path></g></g></svg><g></g></g></svg></g></svg></g><defs></defs></svg><rect width="395.52" height="44.41381870030677" fill="none" stroke="none" visibility="hidden"></rect></g></svg></g></svg>