<?xml version="1.0" standalone="no"?>
<!DOCTYPE svg PUBLIC "-//W3C//DTD SVG 20010904//EN"
 "http://www.w3.org/TR/2001/REC-SVG-20010904/DTD/svg10.dtd">
<svg version="1.0" xmlns="http://www.w3.org/2000/svg"
 width="488.000000pt" height="114.000000pt" viewBox="0 0 488.000000 114.000000"
 preserveAspectRatio="xMidYMid meet">

<g transform="translate(0.000000,114.000000) scale(0.100000,-0.100000)"
fill="#000000" stroke="none">
<path d="M290 709 l0 -160 23 7 c12 3 24 11 25 15 2 5 100 9 218 9 l214 0 0
110 0 110 25 0 25 0 0 -110 c0 -102 1 -110 19 -110 11 0 21 -4 23 -9 2 -4 13
-12 26 -15 l22 -7 0 160 0 161 -115 0 -115 0 0 -110 0 -110 -150 0 -150 0 0
75 c0 68 2 75 20 75 16 0 19 -8 22 -57 l3 -58 43 -3 42 -3 0 95 0 96 -110 0
-110 0 0 -161z"/>
<path d="M1254 654 c-19 -41 -34 -79 -34 -84 0 -5 -15 -43 -34 -84 -47 -103
-51 -116 -32 -116 9 0 26 20 38 45 l22 45 93 0 92 0 20 -45 c11 -26 27 -45 35
-45 9 0 16 3 16 7 0 3 -32 84 -72 180 -86 207 -92 211 -144 97z m80 -34 c10
-25 24 -60 32 -78 8 -18 14 -37 14 -42 0 -6 -34 -10 -76 -10 -68 0 -76 2 -71
18 5 15 25 67 56 146 13 34 20 28 45 -34z"/>
<path d="M1558 714 c-49 -26 -62 -79 -33 -134 14 -28 41 -41 112 -55 38 -8 56
-26 56 -60 0 -33 -18 -52 -53 -60 -35 -8 -90 18 -97 46 -6 22 -43 26 -43 5 0
-22 37 -62 70 -76 45 -19 110 -7 137 25 35 40 31 96 -8 129 -17 14 -39 26 -50
26 -10 0 -19 5 -19 10 0 6 -10 10 -23 10 -67 0 -84 87 -21 110 35 14 91 -4 99
-31 7 -20 30 -26 40 -9 9 14 -21 55 -51 68 -34 16 -83 14 -116 -4z"/>
<path d="M1810 550 c0 -153 2 -180 15 -180 12 0 15 16 15 80 l0 80 100 0 100
0 0 -81 c0 -71 2 -80 18 -77 15 3 17 20 17 178 0 158 -2 175 -17 178 -16 3
-18 -6 -18 -82 l0 -86 -94 0 c-109 0 -106 -3 -106 101 0 55 -3 69 -15 69 -13
0 -15 -27 -15 -180z"/>
<path d="M2244 711 c-23 -10 -52 -34 -65 -52 -20 -29 -24 -46 -24 -111 0 -62
4 -82 21 -104 35 -47 70 -67 128 -72 98 -8 186 62 186 148 0 19 -7 20 -95 20
-88 0 -95 -1 -95 -20 0 -18 7 -20 70 -20 39 0 70 -3 70 -7 0 -28 -43 -73 -80
-84 -93 -28 -170 35 -170 138 0 62 18 103 55 127 53 35 150 18 175 -30 13 -24
44 -32 55 -14 19 30 -89 100 -154 100 -20 0 -54 -9 -77 -19z"/>
<path d="M2560 551 c0 -168 1 -182 18 -179 14 3 18 16 20 71 l3 67 33 0 c29 0
38 -7 82 -70 37 -53 55 -70 73 -70 17 0 21 3 14 13 -41 52 -94 129 -91 132 1
1 17 9 34 18 38 19 61 80 47 123 -16 48 -51 65 -147 71 l-86 6 0 -182z m180
119 c23 -23 25 -48 9 -84 -13 -29 -55 -46 -110 -46 l-39 0 0 75 0 75 60 0 c47
0 64 -4 80 -20z"/>
<path d="M2945 654 c-19 -42 -35 -80 -35 -84 0 -3 -18 -48 -40 -99 -22 -50
-40 -94 -40 -97 0 -2 8 -4 19 -4 13 0 24 14 35 45 l18 45 93 0 94 0 20 -45
c11 -26 27 -45 35 -45 22 0 21 5 -28 121 -24 57 -56 134 -71 172 -38 92 -55
90 -100 -9z m76 -21 c23 -55 49 -124 49 -135 0 -5 -34 -8 -75 -8 -41 0 -75 2
-75 4 0 15 71 186 77 186 2 0 13 -21 24 -47z"/>
<path d="M3214 717 c-2 -7 -3 -87 -2 -177 3 -148 5 -165 21 -168 15 -3 17 5
17 67 l0 71 60 0 c74 0 114 19 129 61 36 104 -21 158 -167 159 -34 0 -54 -5
-58 -13z m174 -43 c13 -9 22 -25 22 -42 0 -71 -26 -92 -110 -92 l-50 0 0 75 0
75 58 0 c36 0 66 -6 80 -16z"/>
<path d="M3514 717 c-2 -7 -3 -87 -2 -177 3 -148 5 -165 21 -168 15 -3 17 6
17 77 l0 81 100 0 100 0 0 -81 c0 -71 2 -80 18 -77 15 3 17 20 17 178 0 158
-2 175 -17 178 -16 3 -18 -5 -18 -66 0 -104 2 -102 -100 -102 -102 0 -100 -2
-100 101 0 55 -3 69 -15 69 -9 0 -18 -6 -21 -13z"/>
<path d="M3880 550 c0 -167 1 -181 18 -178 15 3 17 20 17 178 0 158 -2 175
-17 178 -17 3 -18 -11 -18 -178z"/>
<path d="M4079 707 c-65 -35 -91 -84 -87 -169 6 -111 58 -163 166 -163 73 0
106 16 136 67 36 59 8 65 -41 9 -40 -48 -91 -60 -147 -37 -50 21 -76 68 -76
136 0 93 45 139 134 140 44 0 53 -4 87 -40 21 -22 43 -40 49 -40 18 0 11 28
-17 61 -52 61 -129 75 -204 36z"/>
<path d="M4425 721 c-87 -38 -75 -157 19 -182 77 -21 96 -31 102 -55 9 -34 -4
-61 -35 -74 -38 -15 -78 -3 -103 31 -25 33 -48 38 -48 11 0 -30 53 -73 99 -79
81 -11 140 42 126 114 -6 35 -51 73 -87 73 -10 0 -18 5 -18 10 0 6 -8 10 -18
10 -28 0 -62 29 -62 54 0 59 94 82 136 33 27 -31 44 -35 44 -9 0 47 -99 87
-155 63z"/>
<path d="M335 528 c-41 -22 -45 -38 -45 -165 l0 -123 110 0 110 0 0 101 0 100
-42 -3 -43 -3 -3 -62 c-3 -55 -6 -63 -22 -63 -18 0 -20 7 -20 80 l0 80 220 0
220 0 0 -80 c0 -79 0 -80 -25 -80 -24 0 -25 2 -25 66 l0 65 -42 -3 -43 -3 0
-95 0 -95 113 -3 112 -3 0 121 c0 121 0 122 -29 151 l-29 29 -249 0 c-160 -1
-255 -4 -268 -12z"/>
</g>
</svg>
