<svg xmlns="http://www.w3.org/2000/svg" xmlns:xlink="http://www.w3.org/1999/xlink" viewBox="0 0 396 65" data-background-color="#17212f" preserveAspectRatio="xMidYMid meet" height="50" width="300"><g id="tight-bounds" transform="matrix(1,0,0,1,0.23996658244223568,-0.10074559737014965)"><svg viewBox="0 0 395.5199999999999 65.20164675913902" height="65.20164675913902" width="395.5199999999999"><g><svg viewBox="0 0 473.42777450835615 78.04477781012127" height="65.20164675913902" width="395.5199999999999"><g transform="matrix(1,0,0,1,0,3.069761260531429)"><svg viewBox="0 0 71.868137270054 71.90525528905842" height="71.90525528905842" width="71.868137270054"><g><svg xmlns="http://www.w3.org/2000/svg" xmlns:xlink="http://www.w3.org/1999/xlink" version="1.0" x="0" y="0" viewBox="15.019531299999997 15.0014648 69.96093739999999 69.99707040000001" enable-background="new 0 0 100 100" xml:space="preserve" height="71.90525528905842" width="71.868137270054" class="icon-icon-0" data-fill-palette-color="accent" id="icon-0"><g fill="#64b5f6" data-fill-palette-color="accent"><g fill="#64b5f6" data-fill-palette-color="accent"><path d="M22.52 30.001c3.622 0 6.652-2.581 7.348-6h12.783c0.697 3.419 3.727 6 7.349 6s6.652-2.581 7.349-6h12.783c0.697 3.419 3.727 6 7.348 6 4.136 0 7.5-3.364 7.5-7.5s-3.364-7.5-7.5-7.5c-3.622 0-6.652 2.581-7.348 6H57.349c-0.697-3.419-3.727-6-7.349-6s-6.652 2.581-7.349 6H29.868c-0.697-3.419-3.727-6-7.348-6-4.136 0-7.5 3.364-7.5 7.5S18.384 30.001 22.52 30.001zM77.48 18.001c2.481 0 4.5 2.019 4.5 4.5s-2.019 4.5-4.5 4.5c-1.953 0-3.602-1.258-4.223-3-0.168-0.471-0.276-0.971-0.277-1.5s0.108-1.029 0.277-1.5C73.878 19.259 75.528 18.001 77.48 18.001zM50 18.001c1.953 0 3.602 1.258 4.224 3 0.168 0.471 0.276 0.971 0.276 1.5s-0.108 1.029-0.276 1.5c-0.621 1.742-2.271 3-4.224 3s-3.602-1.258-4.224-3C45.608 23.53 45.5 23.03 45.5 22.501s0.108-1.029 0.276-1.5C46.398 19.259 48.047 18.001 50 18.001zM22.52 18.001c1.953 0 3.602 1.258 4.223 3 0.168 0.471 0.276 0.971 0.277 1.5s-0.108 1.029-0.277 1.5c-0.621 1.742-2.271 3-4.223 3-2.481 0-4.5-2.019-4.5-4.5S20.038 18.001 22.52 18.001z" fill="#64b5f6" data-fill-palette-color="accent"/><circle cx="31.0293579" cy="58.4619751" r="1.5" fill="#64b5f6" data-fill-palette-color="accent"/><circle cx="34.6916504" cy="62.1242065" r="1.5" fill="#64b5f6" data-fill-palette-color="accent"/><circle cx="38.3538818" cy="65.786499" r="1.5" fill="#64b5f6" data-fill-palette-color="accent"/><circle cx="42.0161743" cy="69.4487305" r="1.5" fill="#64b5f6" data-fill-palette-color="accent"/><circle cx="50" cy="66.286499" r="1.5" fill="#64b5f6" data-fill-palette-color="accent"/><circle cx="50" cy="61.4619751" r="1.5" fill="#64b5f6" data-fill-palette-color="accent"/><circle cx="69.5288086" cy="30.5200195" r="1.5" fill="#64b5f6" data-fill-palette-color="accent"/><circle cx="65.8665771" cy="34.182312" r="1.5" fill="#64b5f6" data-fill-palette-color="accent"/><circle cx="62.2042847" cy="37.8445435" r="1.5" fill="#64b5f6" data-fill-palette-color="accent"/><circle cx="58.5420532" cy="41.5068359" r="1.5" fill="#64b5f6" data-fill-palette-color="accent"/><path d="M77.48 42.5c-3.622 0-6.652 2.581-7.348 6H57.349c-0.697-3.419-3.727-6-7.349-6s-6.652 2.581-7.349 6H29.868c-0.697-3.419-3.727-6-7.348-6-4.136 0-7.5 3.364-7.5 7.5s3.364 7.5 7.5 7.5c3.622 0 6.652-2.581 7.348-6h12.783c0.697 3.419 3.727 6 7.349 6s6.652-2.581 7.349-6h12.783c0.697 3.419 3.727 6 7.348 6 4.136 0 7.5-3.364 7.5-7.5S81.616 42.5 77.48 42.5zM22.52 54.5c-2.481 0-4.5-2.019-4.5-4.5s2.019-4.5 4.5-4.5c1.953 0 3.602 1.258 4.223 3 0.168 0.471 0.276 0.971 0.277 1.5s-0.108 1.029-0.277 1.5C26.122 53.242 24.472 54.5 22.52 54.5zM50 54.5c-1.953 0-3.602-1.258-4.224-3C45.608 51.029 45.5 50.529 45.5 50s0.108-1.029 0.276-1.5c0.621-1.742 2.271-3 4.224-3s3.602 1.258 4.224 3C54.392 48.971 54.5 49.471 54.5 50s-0.108 1.029-0.276 1.5C53.602 53.242 51.953 54.5 50 54.5zM77.48 54.5c-1.953 0-3.602-1.258-4.223-3-0.168-0.471-0.276-0.971-0.277-1.5s0.108-1.029 0.277-1.5c0.621-1.742 2.271-3 4.223-3 2.481 0 4.5 2.019 4.5 4.5S79.962 54.5 77.48 54.5z" fill="#64b5f6" data-fill-palette-color="accent"/><path d="M77.48 69.999c-3.622 0-6.652 2.581-7.348 6H57.349c-0.697-3.419-3.727-6-7.349-6s-6.652 2.581-7.349 6H29.868c-0.697-3.419-3.727-6-7.348-6-4.136 0-7.5 3.364-7.5 7.5s3.364 7.5 7.5 7.5c3.622 0 6.652-2.581 7.348-6h12.783c0.697 3.419 3.727 6 7.349 6s6.652-2.581 7.349-6h12.783c0.697 3.419 3.727 6 7.348 6 4.136 0 7.5-3.364 7.5-7.5S81.616 69.999 77.48 69.999zM22.52 81.999c-2.481 0-4.5-2.019-4.5-4.5s2.019-4.5 4.5-4.5c1.953 0 3.602 1.258 4.223 3 0.168 0.471 0.276 0.971 0.277 1.5s-0.108 1.029-0.277 1.5C26.122 80.741 24.472 81.999 22.52 81.999zM50 81.999c-1.953 0-3.602-1.258-4.224-3C45.608 78.527 45.5 78.027 45.5 77.499s0.108-1.029 0.276-1.5c0.621-1.742 2.271-3 4.224-3s3.602 1.258 4.224 3c0.168 0.471 0.276 0.971 0.276 1.5s-0.108 1.029-0.276 1.5C53.602 80.741 51.953 81.999 50 81.999zM77.48 81.999c-1.953 0-3.602-1.258-4.223-3-0.168-0.471-0.276-0.971-0.277-1.5s0.108-1.029 0.277-1.5c0.621-1.742 2.271-3 4.223-3 2.481 0 4.5 2.019 4.5 4.5S79.962 81.999 77.48 81.999z" fill="#64b5f6" data-fill-palette-color="accent"/></g></g></svg></g></svg></g></svg></g><defs/></svg><rect width="20" height="20" fill="none" stroke="none" visibility="hidden"/></g></svg>