<svg xmlns="http://www.w3.org/2000/svg" version="1.1" xmlns:xlink="http://www.w3.org/1999/xlink" xmlns:svgjs="http://svgjs.dev/svgjs" viewBox="0 0 9.755911826471056 5.106587523606654"><g transform="matrix(1,0,0,1,4.9245736382149286,1.7458031669343022)"><rect width="9.755911826471056" height="9.755911826471056" x="-4.9245736382149286" y="-4.070465318366503" fill="#ffffff"></rect><g><path d=" M 0.41355498843041066 0.24710145000320444 Q 0.46513214118250273 0.29539642030743607 0.46513214118250273 0.3901108280885505 L 0.46513214118250273 0.6958226789464051 L 0.40136402505264346 0.6958226789464051 L 0.40136402505264346 0.6189258330251043 Q 0.37885763112445786 0.6573742559857547 0.33525149288859823 0.678942883500266 Q 0.2916453546527386 0.7005115110147772 0.23162830417757696 0.7005115110147772 Q 0.14910485977422971 0.7005115110147772 0.10034100626316086 0.6611253216404523 Q 0.051577152752092036 0.6217391322661275 0.051577152752092036 0.5570332497225938 Q 0.051577152752092036 0.494202900006409 0.09705882381530047 0.45575447704575855 Q 0.1425404948785089 0.4173060540851082 0.24194373472799538 0.4173060540851082 L 0.39855072581162027 0.4173060540851082 L 0.39855072581162027 0.38729752884752733 Q 0.39855072581162027 0.3235294127176681 0.36291560209199303 0.2902387050322269 Q 0.32728047837236585 0.25694799734678564 0.25882353017413456 0.25694799734678564 Q 0.21193520949041456 0.25694799734678564 0.16879795446139212 0.2724211431724133 Q 0.12566069943236968 0.28789428899804087 0.09471440778111447 0.3150895149945985 L 0.06470588254353364 0.2653878950698553 Q 0.10221653909050966 0.2335038370049256 0.1547314582562761 0.2161551583519492 Q 0.20724637742204255 0.1988064796989728 0.2653878950698554 0.1988064796989728 Q 0.36197783567831865 0.1988064796989728 0.41355498843041066 0.24710145000320444 M 0.3385336753364586 0.6222080154729647 Q 0.37885763112445786 0.5964194390969186 0.39855072581162027 0.5476555855858498 L 0.39855072581162027 0.4670076740098514 L 0.24381926755534417 0.4670076740098514 Q 0.11722080170930008 0.4670076740098514 0.11722080170930008 0.5551577168952451 Q 0.11722080170930008 0.5982949719242675 0.1500426261879041 0.623145781886639 Q 0.18286445066650814 0.6479965918490107 0.24194373472799538 0.6479965918490107 Q 0.29820971954845943 0.6479965918490107 0.3385336753364586 0.6222080154729647 M 0.679343174222353 0.6831628323618008 Q 0.6244838390224006 0.6658141537088244 0.5935375473711454 0.6395566941259411 L 0.6235460726087262 0.5870417749601746 Q 0.6544923642599815 0.6114237017157091 0.7013806849437014 0.6268968475413367 Q 0.7482690056274215 0.6423699933669643 0.7989083919658391 0.6423699933669643 Q 0.8664275737503959 0.6423699933669643 0.8987805150221628 0.6212702490592903 Q 0.9311334562939296 0.6001705047516163 0.9311334562939296 0.5617220817909658 Q 0.9311334562939296 0.5345268557944083 0.913315894434116 0.5190537099687806 Q 0.8954983325743024 0.503580564143153 0.8683031065777448 0.4956095496269206 Q 0.8411078805811871 0.4876385351106882 0.7960950927248159 0.48013640380129297 Q 0.7360780422496542 0.4688832068372002 0.6995051521163527 0.4571611266662702 Q 0.662932261983051 0.44543904649534016 0.6371436856070051 0.4173060540851082 Q 0.611355109230959 0.38917306167487614 0.611355109230959 0.3394714417501329 Q 0.611355109230959 0.2775788584476225 0.662932261983051 0.2381926690732976 Q 0.7145094147351431 0.1988064796989728 0.8064105232752343 0.1988064796989728 Q 0.8542366103726288 0.1988064796989728 0.9020626974700232 0.2114663262835772 Q 0.9498887845674177 0.2241261728681816 0.9808350762186728 0.24475703396901843 L 0.9517643173947665 0.29820971954845926 Q 0.8908095005059304 0.25601023093311126 0.8064105232752343 0.25601023093311126 Q 0.7426424071453751 0.25601023093311126 0.7102894658736083 0.27851662486129686 Q 0.6779365246018414 0.30102301878948245 0.6779365246018414 0.3375959089227841 Q 0.6779365246018414 0.3657289013330161 0.6962229696684923 0.3826086967791553 Q 0.7145094147351431 0.39948849222529453 0.7417046407317007 0.4074595067415269 Q 0.7688998667282583 0.41543052125775937 0.8167259538256527 0.42387041898082894 Q 0.8758052378871399 0.43512361594492177 0.9114403616067672 0.44637681290901454 Q 0.9470754853263945 0.4576300098731074 0.9723951784956033 0.48482523586966497 Q 0.9977148716648121 0.5120204618662226 0.9977148716648121 0.5598465489636171 Q 0.9977148716648121 0.6245524315071507 0.943793302878534 0.662531971260964 Q 0.889871734092256 0.7005115110147772 0.7942195598974672 0.7005115110147772 Q 0.7342025094223055 0.7005115110147772 0.679343174222353 0.6831628323618008 M 1.5354429542909003 0.2527280484852508 Q 1.5903022894908527 0.3066496172715289 1.5903022894908527 0.4098039227757129 L 1.5903022894908527 0.6958226789464051 L 1.5237208741199704 0.6958226789464051 L 1.5237208741199704 0.41636828767143375 Q 1.5237208741199704 0.3394714417501329 1.4852724511593198 0.2991474859621337 Q 1.4468240281986695 0.25882353017413445 1.375553780759415 0.25882353017413445 Q 1.295843635597091 0.25882353017413445 1.249424198120208 0.3061807340646917 Q 1.2030047606433252 0.3535379379552489 1.2030047606433252 0.4369991487722706 L 1.2030047606433252 0.6958226789464051 L 1.1364233452724428 0.6958226789464051 L 1.1364233452724428 -1.1102230246251565e-16 L 1.2030047606433252 -1.1102230246251565e-16 L 1.2030047606433252 0.28883205541171525 Q 1.230199986639883 0.2456948003826928 1.2780260737372773 0.22225064004083284 Q 1.3258521608346718 0.1988064796989728 1.3877447441371822 0.1988064796989728 Q 1.4805836190909478 0.1988064796989728 1.5354429542909003 0.2527280484852508 M 2.1669366888342685 0.23022165455706523 Q 2.2232026736547326 0.26163682941515765 2.255086731719662 0.3188405806492961 Q 2.2869707897845917 0.3760443318834345 2.2869707897845917 0.4491901121500378 Q 2.2869707897845917 0.5232736588303154 2.255086731719662 0.5804774100644539 Q 2.2232026736547326 0.6376811612985923 2.1674055720411056 0.6690963361566847 Q 2.1116084704274787 0.7005115110147772 2.041275989401899 0.7005115110147772 Q 1.9812589389267372 0.7005115110147772 1.9329639686225055 0.6756607010524055 Q 1.8846689983182738 0.650809891090034 1.8537227066670185 0.6029838039926395 L 1.8537227066670185 0.8777493631992389 L 1.7871412912961362 0.8777493631992389 L 1.7871412912961362 0.20255754535367043 L 1.8509094074259955 0.20255754535367043 L 1.8509094074259955 0.3000852523758081 Q 1.8809179326635763 0.25132139886473925 1.9301506693814823 0.22506393928185603 Q 1.9793834060993882 0.1988064796989728 2.041275989401899 0.1988064796989728 Q 2.1106707040138044 0.1988064796989728 2.1669366888342685 0.23022165455706523 M 2.1303637987009667 0.6175191834045927 Q 2.172563287316315 0.5936061398558955 2.1964763308650124 0.5495311184131987 Q 2.2203893744137093 0.5054560969705018 2.2203893744137093 0.4491901121500378 Q 2.2203893744137093 0.3929241273295737 2.1964763308650124 0.3493179890937141 Q 2.172563287316315 0.30571185085785446 2.1303637987009667 0.28132992410232005 Q 2.088164310085619 0.25694799734678564 2.0365871573335266 0.25694799734678564 Q 1.9840722381677605 0.25694799734678564 1.9423416327592495 0.28132992410232005 Q 1.9006110273507386 0.30571185085785446 1.8766979838020414 0.3493179890937141 Q 1.8527849402533443 0.3929241273295737 1.8527849402533443 0.4491901121500378 Q 1.8527849402533443 0.5054560969705018 1.8766979838020414 0.5495311184131987 Q 1.9006110273507386 0.5936061398558955 1.9423416327592495 0.6175191834045927 Q 1.9840722381677605 0.6414322269532899 2.0365871573335266 0.6414322269532899 Q 2.088164310085619 0.6414322269532899 2.1303637987009667 0.6175191834045927 M 2.5119208050997868 0.6681585697430104 Q 2.4547170538656484 0.6358056284712436 2.421895229387044 0.5786018772371051 Q 2.3890734049084403 0.5213981260029666 2.3890734049084403 0.4491901121500378 Q 2.3890734049084403 0.37698209829710894 2.421895229387044 0.3197783470629705 Q 2.4547170538656484 0.262574595828832 2.5119208050997868 0.23069053776390241 Q 2.569124556333925 0.1988064796989728 2.6403948037731797 0.1988064796989728 Q 2.7116650512124343 0.1988064796989728 2.7688688024465726 0.23069053776390241 Q 2.826072553680711 0.262574595828832 2.8584254949524777 0.3197783470629705 Q 2.8907784362242444 0.37698209829710894 2.8907784362242444 0.4491901121500378 Q 2.8907784362242444 0.5213981260029666 2.8584254949524777 0.5786018772371051 Q 2.826072553680711 0.6358056284712436 2.7688688024465726 0.6681585697430104 Q 2.7116650512124343 0.7005115110147772 2.6403948037731797 0.7005115110147772 Q 2.569124556333925 0.7005115110147772 2.5119208050997868 0.6681585697430104 M 2.734640328347457 0.6175191834045927 Q 2.7763709337559677 0.5936061398558955 2.799815094097828 0.5495311184131987 Q 2.8232592544396877 0.5054560969705018 2.8232592544396877 0.4491901121500378 Q 2.8232592544396877 0.3929241273295737 2.799815094097828 0.3488491058868769 Q 2.7763709337559677 0.3047740844441801 2.734640328347457 0.28086104089548286 Q 2.6929097229389463 0.25694799734678564 2.6403948037731797 0.25694799734678564 Q 2.587879884607413 0.25694799734678564 2.5461492791989024 0.28086104089548286 Q 2.5044186737903913 0.3047740844441801 2.4805056302416943 0.3488491058868769 Q 2.456592586692997 0.3929241273295737 2.456592586692997 0.4491901121500378 Q 2.456592586692997 0.5054560969705018 2.4805056302416943 0.5495311184131987 Q 2.5044186737903913 0.5936061398558955 2.5461492791989024 0.6175191834045927 Q 2.587879884607413 0.6414322269532899 2.6403948037731797 0.6414322269532899 Q 2.6929097229389463 0.6414322269532899 2.734640328347457 0.6175191834045927 M 3.0426160975170737 0.20255754535367043 L 3.109197512887956 0.20255754535367043 L 3.109197512887956 0.6958226789464051 L 3.0426160975170737 0.6958226789464051 L 3.0426160975170737 0.20255754535367043 M 3.041678331103399 0.08064791157599838 Q 3.0276118348982832 0.06658141537088236 3.0276118348982832 0.04688832068371995 Q 3.0276118348982832 0.028132992410231927 3.041678331103399 0.014066496205115908 Q 3.0557448273085153 -1.1102230246251565e-16 3.076375688409352 -1.1102230246251565e-16 Q 3.097006549510189 -1.1102230246251565e-16 3.1110730457153046 0.013597612998278663 Q 3.125139541920421 0.027195225996557437 3.125139541920421 0.04595055427004546 Q 3.125139541920421 0.06658141537088236 3.1110730457153046 0.08064791157599838 Q 3.097006549510189 0.09471440778111428 3.076375688409352 0.09471440778111428 Q 3.0557448273085153 0.09471440778111428 3.041678331103399 0.08064791157599838 M 3.709726182136045 0.2527280484852508 Q 3.7645855173359974 0.3066496172715289 3.7645855173359974 0.4098039227757129 L 3.7645855173359974 0.6958226789464051 L 3.698004101965115 0.6958226789464051 L 3.698004101965115 0.41636828767143375 Q 3.698004101965115 0.3394714417501329 3.6595556790044648 0.2991474859621337 Q 3.621107256043814 0.25882353017413445 3.54983700860456 0.25882353017413445 Q 3.4701268634422355 0.25882353017413445 3.423707425965353 0.3061807340646917 Q 3.37728798848847 0.3535379379552489 3.37728798848847 0.4369991487722706 L 3.37728798848847 0.6958226789464051 L 3.3107065731175878 0.6958226789464051 L 3.3107065731175878 0.20255754535367043 L 3.374474689247447 0.20255754535367043 L 3.374474689247447 0.29352088748008726 Q 3.401669915244004 0.24850809962371606 3.449964885548236 0.2236572896613444 Q 3.4982598558524676 0.1988064796989728 3.562027971982327 0.1988064796989728 Q 3.6548668469360925 0.1988064796989728 3.709726182136045 0.2527280484852508 M 4.22118581572909 0.6658141537088244 Q 4.202430487455602 0.6826939491549635 4.174766378252207 0.6916027300848704 Q 4.147102269048812 0.7005115110147772 4.117093743811232 0.7005115110147772 Q 4.047699029199325 0.7005115110147772 4.01018837265235 0.6630008544678011 Q 3.9726777161053737 0.625490197920825 3.9726777161053737 0.5570332497225938 L 3.9726777161053737 0.25882353017413445 L 3.88452767321998 0.25882353017413445 L 3.88452767321998 0.20255754535367043 L 3.9726777161053737 0.20255754535367043 L 3.9726777161053737 0.09471440778111428 L 4.039259131476256 0.09471440778111428 L 4.039259131476256 0.20255754535367043 L 4.18930175766416 0.20255754535367043 L 4.18930175766416 0.25882353017413445 L 4.039259131476256 0.25882353017413445 L 4.039259131476256 0.5532821840678963 Q 4.039259131476256 0.5973572055105931 4.061296642197605 0.6203324826456159 Q 4.083334152918953 0.6433077597806387 4.124595875120627 0.6433077597806387 Q 4.145226736221463 0.6433077597806387 4.164450947701789 0.6367433948849179 Q 4.183675159182114 0.6301790299891971 4.1977416553872295 0.6179880666114299 L 4.22118581572909 0.6658141537088244" fill="#9fa3ea" fill-rule="nonzero"></path></g><g><path d=" M 0.4036363636363636 1.6149811897380497 L 0.2945454545454545 1.4615720988289589 Q 0.2761363636363636 1.4636175533744133 0.25636363636363635 1.4636175533744133 L 0.12818181818181817 1.4636175533744133 L 0.12818181818181817 1.6149811897380497 L 0.07772727272727271 1.6149811897380497 L 0.07772727272727271 1.1377084624653224 L 0.25636363636363635 1.1377084624653224 Q 0.3477272727272727 1.1377084624653224 0.39954545454545454 1.1813448261016861 Q 0.4513636363636363 1.2249811897380498 0.4513636363636363 1.301344826101686 Q 0.4513636363636363 1.3572539170107771 0.4230681818181818 1.3957766442835042 Q 0.3947727272727272 1.4342993715562316 0.34227272727272723 1.4513448261016861 L 0.4588636363636363 1.6149811897380497 L 0.4036363636363636 1.6149811897380497 M 0.3634090909090909 1.3892993715562316 Q 0.4009090909090909 1.3579357351925951 0.4009090909090909 1.301344826101686 Q 0.4009090909090909 1.2433902806471406 0.3634090909090909 1.2123675533744134 Q 0.32590909090909087 1.1813448261016861 0.255 1.1813448261016861 L 0.12818181818181817 1.1813448261016861 L 0.12818181818181817 1.4206630079198679 L 0.255 1.4206630079198679 Q 0.32590909090909087 1.4206630079198679 0.3634090909090909 1.3892993715562316 M 0.8795607688210227 1.450663007919868 L 0.5795607688210227 1.450663007919868 Q 0.5836516779119318 1.5065720988289588 0.6225153142755682 1.541003917010777 Q 0.6613789506392045 1.5754357351925952 0.7206971324573863 1.5754357351925952 Q 0.7541062233664773 1.5754357351925952 0.7820607688210226 1.563503917010777 Q 0.8100153142755682 1.5515720988289587 0.8304698597301136 1.5283902806471406 L 0.8577425870028408 1.559753917010777 Q 0.8338789506392045 1.5883902806471406 0.79808349609375 1.6033902806471407 Q 0.7622880415482953 1.6183902806471406 0.71933349609375 1.6183902806471406 Q 0.6641062233664772 1.6183902806471406 0.6214925870028408 1.5948675533744134 Q 0.5788789506392045 1.571344826101686 0.5550153142755682 1.529753917010777 Q 0.5311516779119317 1.488163007919868 0.5311516779119317 1.435663007919868 Q 0.5311516779119317 1.383163007919868 0.5539925870028408 1.3415720988289588 Q 0.57683349609375 1.2999811897380498 0.6167198597301136 1.2767993715562316 Q 0.6566062233664772 1.2536175533744134 0.7063789506392045 1.2536175533744134 Q 0.7561516779119317 1.2536175533744134 0.7956971324573863 1.2767993715562316 Q 0.8352425870028408 1.2999811897380498 0.8577425870028408 1.3412311897380498 Q 0.8802425870028409 1.3824811897380498 0.8802425870028409 1.435663007919868 L 0.8795607688210227 1.450663007919868 M 0.6194471324573864 1.3282766442835043 Q 0.58433349609375 1.361344826101686 0.5795607688210227 1.4145266442835043 L 0.8338789506392045 1.4145266442835043 Q 0.8291062233664772 1.361344826101686 0.7939925870028408 1.3282766442835043 Q 0.7588789506392045 1.2952084624653224 0.7063789506392045 1.2952084624653224 Q 0.6545607688210227 1.2952084624653224 0.6194471324573864 1.3282766442835043 M 0.9985407049005681 1.6057766442835042 Q 0.9586543412642046 1.593163007919868 0.9361543412642045 1.5740720988289587 L 0.9579725230823863 1.5358902806471406 Q 0.9804725230823863 1.5536175533744134 1.0145634321732955 1.5648675533744134 Q 1.0486543412642044 1.5761175533744134 1.0854725230823863 1.5761175533744134 Q 1.1345634321732954 1.5761175533744134 1.1580861594460226 1.5607766442835043 Q 1.18160888671875 1.5454357351925951 1.18160888671875 1.5174811897380498 Q 1.18160888671875 1.4977084624653225 1.1686543412642045 1.4864584624653225 Q 1.155699795809659 1.4752084624653223 1.1359270685369318 1.469413007919868 Q 1.1161543412642045 1.4636175533744133 1.0834270685369318 1.458163007919868 Q 1.0397907049005681 1.4499811897380497 1.013199795809659 1.4414584624653224 Q 0.9866088867187499 1.432935735192595 0.96785888671875 1.4124811897380498 Q 0.9491088867187499 1.3920266442835043 0.9491088867187499 1.3558902806471407 Q 0.9491088867187499 1.3108902806471407 0.9866088867187499 1.282253917010777 Q 1.02410888671875 1.2536175533744134 1.0909270685369319 1.2536175533744134 Q 1.125699795809659 1.2536175533744134 1.1604725230823862 1.262822098828959 Q 1.1952452503551136 1.2720266442835042 1.2177452503551136 1.2870266442835043 L 1.1966088867187499 1.3258902806471407 Q 1.1522907049005682 1.2952084624653224 1.0909270685369319 1.2952084624653224 Q 1.0445634321732955 1.2952084624653224 1.021040704900568 1.3115720988289588 Q 0.9975179776278409 1.3279357351925951 0.9975179776278409 1.3545266442835042 Q 0.9975179776278409 1.3749811897380497 1.0108134321732953 1.387253917010777 Q 1.02410888671875 1.3995266442835044 1.0438816139914773 1.4053220988289588 Q 1.0636543412642046 1.4111175533744134 1.0984270685369317 1.417253917010777 Q 1.1413816139914772 1.4254357351925953 1.167290704900568 1.4336175533744133 Q 1.193199795809659 1.4417993715562316 1.21160888671875 1.4615720988289589 Q 1.2300179776278408 1.4813448261016862 1.2300179776278408 1.5161175533744133 Q 1.2300179776278408 1.563163007919868 1.1908134321732953 1.5907766442835043 Q 1.15160888671875 1.6183902806471406 1.0820634321732954 1.6183902806471406 Q 1.0384270685369317 1.6183902806471406 0.9985407049005681 1.6057766442835042 M 1.6384363902698862 1.450663007919868 L 1.3384363902698864 1.450663007919868 Q 1.3425272993607953 1.5065720988289588 1.3813909357244318 1.541003917010777 Q 1.4202545720880682 1.5754357351925952 1.47957275390625 1.5754357351925952 Q 1.5129818448153407 1.5754357351925952 1.5409363902698863 1.563503917010777 Q 1.5688909357244318 1.5515720988289587 1.5893454811789771 1.5283902806471406 L 1.6166182084517045 1.559753917010777 Q 1.592754572088068 1.5883902806471406 1.5569591175426136 1.6033902806471407 Q 1.521163662997159 1.6183902806471406 1.4782091175426135 1.6183902806471406 Q 1.4229818448153408 1.6183902806471406 1.3803682084517044 1.5948675533744134 Q 1.3377545720880681 1.571344826101686 1.3138909357244317 1.529753917010777 Q 1.2900272993607953 1.488163007919868 1.2900272993607953 1.435663007919868 Q 1.2900272993607953 1.383163007919868 1.3128682084517045 1.3415720988289588 Q 1.3357091175426137 1.2999811897380498 1.3755954811789772 1.2767993715562316 Q 1.4154818448153408 1.2536175533744134 1.465254572088068 1.2536175533744134 Q 1.5150272993607954 1.2536175533744134 1.55457275390625 1.2767993715562316 Q 1.5941182084517045 1.2999811897380498 1.6166182084517045 1.3412311897380498 Q 1.6391182084517044 1.3824811897380498 1.6391182084517044 1.435663007919868 L 1.6384363902698862 1.450663007919868 M 1.37832275390625 1.3282766442835043 Q 1.3432091175426135 1.361344826101686 1.3384363902698864 1.4145266442835043 L 1.592754572088068 1.4145266442835043 Q 1.5879818448153409 1.361344826101686 1.5528682084517045 1.3282766442835043 Q 1.517754572088068 1.2952084624653224 1.465254572088068 1.2952084624653224 Q 1.4134363902698863 1.2952084624653224 1.37832275390625 1.3282766442835043 M 1.967747247869318 1.2887311897380498 Q 2.0052472478693177 1.323844826101686 2.0052472478693177 1.3927084624653225 L 2.0052472478693177 1.6149811897380497 L 1.9588836115056816 1.6149811897380497 L 1.9588836115056816 1.5590720988289588 Q 1.9425199751420452 1.5870266442835044 1.9108154296874997 1.6027084624653225 Q 1.8791108842329542 1.6183902806471406 1.8354745205965908 1.6183902806471406 Q 1.7754745205965907 1.6183902806471406 1.7400199751420453 1.589753917010777 Q 1.7045654296875 1.5611175533744133 1.7045654296875 1.5140720988289589 Q 1.7045654296875 1.4683902806471407 1.7376336115056816 1.4404357351925952 Q 1.7707017933238633 1.4124811897380498 1.8429745205965906 1.4124811897380498 L 1.9568381569602271 1.4124811897380498 L 1.9568381569602271 1.3906630079198679 Q 1.9568381569602271 1.3442993715562315 1.9309290660511362 1.320094826101686 Q 1.9050199751420454 1.2958902806471406 1.855247247869318 1.2958902806471406 Q 1.8211563387784089 1.2958902806471406 1.7897927024147726 1.3071402806471406 Q 1.7584290660511361 1.3183902806471406 1.7359290660511362 1.3381630079198679 L 1.7141108842329544 1.3020266442835042 Q 1.7413836115056816 1.278844826101686 1.7795654296874999 1.2662311897380498 Q 1.817747247869318 1.2536175533744134 1.8600199751420452 1.2536175533744134 Q 1.930247247869318 1.2536175533744134 1.967747247869318 1.2887311897380498 M 1.9132017933238634 1.5614584624653225 Q 1.9425199751420452 1.5427084624653224 1.9568381569602271 1.507253917010777 L 1.9568381569602271 1.4486175533744134 L 1.844338156960227 1.4486175533744134 Q 1.7522927024147725 1.4486175533744134 1.7522927024147725 1.5127084624653224 Q 1.7522927024147725 1.544072098828959 1.776156338778409 1.5621402806471407 Q 1.8000199751420451 1.5802084624653225 1.8429745205965906 1.5802084624653225 Q 1.8838836115056816 1.5802084624653225 1.9132017933238634 1.5614584624653225 M 2.2408337402343745 1.2720266442835042 Q 2.2745837402343745 1.2536175533744134 2.324356467507102 1.2536175533744134 L 2.324356467507102 1.300663007919868 L 2.312765558416193 1.2999811897380498 Q 2.256174649325284 1.2999811897380498 2.224129194779829 1.334753917010777 Q 2.1920837402343745 1.3695266442835043 2.1920837402343745 1.432253917010777 L 2.1920837402343745 1.6149811897380497 L 2.1436746493252836 1.6149811897380497 L 2.1436746493252836 1.256344826101686 L 2.19003828568892 1.256344826101686 L 2.19003828568892 1.3265720988289589 Q 2.2070837402343746 1.2904357351925952 2.2408337402343745 1.2720266442835042 M 2.4685613458806817 1.5952084624653224 Q 2.4266295276988634 1.5720266442835042 2.402765891335227 1.530094826101686 Q 2.3789022549715906 1.488163007919868 2.3789022549715906 1.435663007919868 Q 2.3789022549715906 1.383163007919868 2.402765891335227 1.3415720988289588 Q 2.4266295276988634 1.2999811897380498 2.4685613458806817 1.2767993715562316 Q 2.5104931640625 1.2536175533744134 2.563674982244318 1.2536175533744134 Q 2.6100386186079545 1.2536175533744134 2.646515891335227 1.2716857351925952 Q 2.6829931640624998 1.289753917010777 2.7041295276988633 1.3245266442835044 L 2.6679931640624996 1.3490720988289588 Q 2.650265891335227 1.3224811897380497 2.6229931640624997 1.309185735192595 Q 2.5957204367897724 1.2958902806471406 2.563674982244318 1.2958902806471406 Q 2.5248113458806816 1.2958902806471406 2.4937886186079545 1.3132766442835042 Q 2.462765891335227 1.3306630079198678 2.4453795276988632 1.3627084624653225 Q 2.4279931640625 1.394753917010777 2.4279931640625 1.435663007919868 Q 2.4279931640625 1.477253917010777 2.4453795276988632 1.5089584624653225 Q 2.462765891335227 1.540663007919868 2.4937886186079545 1.5580493715562316 Q 2.5248113458806816 1.5754357351925952 2.563674982244318 1.5754357351925952 Q 2.5957204367897724 1.5754357351925952 2.6229931640624997 1.5624811897380497 Q 2.650265891335227 1.5495266442835043 2.6679931640624996 1.5229357351925952 L 2.7041295276988633 1.5474811897380498 Q 2.6829931640624998 1.582253917010777 2.646174982244318 1.6003220988289588 Q 2.609356800426136 1.6183902806471406 2.563674982244318 1.6183902806471406 Q 2.5104931640625 1.6183902806471406 2.4685613458806817 1.5952084624653224 M 3.090374533913352 1.292822098828959 Q 3.1302608975497157 1.3320266442835043 3.1302608975497157 1.4070266442835042 L 3.1302608975497157 1.6149811897380497 L 3.081851806640625 1.6149811897380497 L 3.081851806640625 1.4117993715562316 Q 3.081851806640625 1.3558902806471407 3.0538972611860795 1.3265720988289589 Q 3.0259427157315337 1.297253917010777 2.974124533913352 1.297253917010777 Q 2.916169988458807 1.297253917010777 2.882419988458807 1.3316857351925953 Q 2.8486699884588065 1.3661175533744134 2.8486699884588065 1.4267993715562315 L 2.8486699884588065 1.6149811897380497 L 2.8002608975497156 1.6149811897380497 L 2.8002608975497156 1.1090720988289589 L 2.8486699884588065 1.1090720988289589 L 2.8486699884588065 1.3190720988289588 Q 2.868442715731534 1.2877084624653223 2.903215443004261 1.270663007919868 Q 2.9379881702769883 1.2536175533744134 2.9829881702769883 1.2536175533744134 Q 3.0504881702769886 1.2536175533744134 3.090374533913352 1.292822098828959" fill="#9fa3ea" fill-rule="nonzero"></path></g><g clip-path="url(#SvgjsClipPath1001)"><path d=" M -4.3425597528232025 0.807490594869025 C -4.3425597528232025 -0.2812172185214332 -3.4599876898020603 -1.1637892815425759 -2.3712798764116014 -1.1637892815425763 C -1.282572063021143 -1.1637892815425763 -0.40000000000000036 -0.28121721852143394 -0.3999999999999999 0.8074905948690244 C -0.3999999999999999 1.8961984082594832 -1.2825720630211426 2.7787704712806263 -2.371279876411601 2.7787704712806263 C -3.4599876898020594 2.7787704712806263 -4.3425597528232025 1.8961984082594836 -4.3425597528232025 0.8074905948690252 Z M -4.280196850873638 0.807490594869025 C -4.280196850873638 1.8617563285575462 -3.425545610100122 2.7164075693310616 -2.371279876411601 2.7164075693310616 C -1.31701414272308 2.7164075693310616 -0.46236290194956453 1.8617563285575458 -0.46236290194956453 0.807490594869025 C -0.46236290194956453 -0.24677513881949592 -1.31701414272308 -1.101426379593012 -2.371279876411601 -1.101426379593012 C -3.425545610100122 -1.101426379593012 -4.280196850873638 -0.24677513881949628 -4.280196850873638 0.8074905948690247 Z" fill="#9fa3ea" transform="matrix(1,0,0,1,0,0)" fill-rule="nonzero"></path><path d=" M -2.975820877450785 -0.21810084309559832 C -2.931953373892038 -0.21810084309559832 -2.8931123551160636 -0.2021074824231384 -2.859297821122863 -0.1701207610782185 C -2.8254832871296616 -0.13813403973329863 -2.808576020133061 -0.09837911463318384 -2.808576020133061 -0.0508559857778742 L -2.808576020133061 1.5338575802818708 C -2.808576020133061 1.5813807091371803 -2.825940240291732 1.621135634237295 -2.8606686806090735 1.653122355582215 C -2.895397120926415 1.685109076927135 -2.9356089991886 1.701102437599595 -2.9813043153956285 1.701102437599595 C -3.0324830695475002 1.701102437599595 -3.073608854133826 1.685109076927135 -3.1046816691546053 1.653122355582215 C -3.1357544841753846 1.621135634237295 -3.151290891685774 1.5813807091371803 -3.151290891685774 1.5338575802818708 L -3.151290891685774 -0.0508559857778742 C -3.151290891685774 -0.09837911463318384 -3.134840577851244 -0.13813403973329863 -3.1019399501821834 -0.1701207610782185 C -3.069039322513123 -0.2021074824231384 -3.026999631602657 -0.21810084309559832 -2.975820877450785 -0.21810084309559832 M -1.7612393726679703 -0.21810084309559832 C -1.7100606185160983 -0.21810084309559832 -1.6689348339297727 -0.2021074824231384 -1.6378620189089934 -0.1701207610782185 C -1.6067892038882141 -0.13813403973329863 -1.5912527963778245 -0.09837911463318384 -1.5912527963778245 -0.0508559857778742 L -1.5912527963778245 1.5338575802818708 C -1.5912527963778245 1.5813807091371803 -1.6072461570502843 1.621135634237295 -1.6392328783952042 1.653122355582215 C -1.6712195997401242 1.685109076927135 -1.7137162438126605 1.701102437599595 -1.7667228106128132 1.701102437599595 C -1.8105903141715607 1.701102437599595 -1.849431332947535 1.685109076927135 -1.883245866940736 1.653122355582215 C -1.917060400933937 1.621135634237295 -1.9339676679305375 1.5813807091371803 -1.9339676679305375 1.5338575802818708 L -1.9339676679305375 -0.0508559857778742 C -1.9339676679305375 -0.09837911463318384 -1.9166034477718665 -0.13813403973329863 -1.881875007454525 -0.1701207610782185 C -1.8471465671371834 -0.2021074824231384 -1.8069346888749984 -0.21810084309559832 -1.7612393726679703 -0.21810084309559832 M -2.9840460343680504 0.5797393778791177 L -1.7612393726679703 0.5797393778791177 L -1.7612393726679703 0.8950370597076137 L -2.9840460343680504 0.8950370597076137 L -2.9840460343680504 0.5797393778791177" fill="#9fa3ea" transform="matrix(1,0,0,1,0,0)" fill-rule="nonzero"></path></g></g><defs><clipPath id="SvgjsClipPath1001"><path d=" M -4.3425597528232025 -1.1637892815425763 h 3.9425597528232026 v 3.9425597528232026 h -3.9425597528232026 Z"></path></clipPath></defs></svg>