<svg xmlns="http://www.w3.org/2000/svg" xmlns:xlink="http://www.w3.org/1999/xlink" version="1.1" width="1000" height="1000" viewBox="0 0 1000 1000" xml:space="preserve">
<desc>Created with Fabric.js 3.5.0</desc>
<defs>
</defs>
<rect x="0" y="0" width="100%" height="100%" fill="#ffffff"/>
<g transform="matrix(0.2338 0 0 0.2475 500.0808 500.0367)" id="838178">
<g style="" vector-effect="non-scaling-stroke">
		<g transform="matrix(1 0 0 1 0.05 0.05)" id="Layer_1-2">
<path style="stroke: none; stroke-width: 1; stroke-dasharray: none; stroke-linecap: butt; stroke-dashoffset: 0; stroke-linejoin: miter; stroke-miterlimit: 4; is-custom-font: none; font-file-url: none; fill: rgb(0,0,0); fill-opacity: 0; fill-rule: nonzero; opacity: 1;" transform=" translate(-2124.7, -1420.7)" d="M 2124.7 170.7 c -690.4 0 -1250 559.6 -1250 1250 s 559.6 1250 1250 1250 s 1250 -559.6 1250 -1250 S 2815 170.7 2124.7 170.7" stroke-linecap="round"/>
</g>
		<g transform="matrix(1 0 0 1 -0.05 -6.55)" id="Layer_1-2">
<path style="stroke: none; stroke-width: 1; stroke-dasharray: none; stroke-linecap: butt; stroke-dashoffset: 0; stroke-linejoin: miter; stroke-miterlimit: 4; is-custom-font: none; font-file-url: none; fill: rgb(56,78,133); fill-rule: nonzero; opacity: 1;" transform=" translate(-2124.6, -1414.1)" d="M 2632.8 1961.3 H 2474 v -337.5 h -698.8 v 337.5 h -158.8 V 866.9 h 158.8 v 329.4 H 2474 V 866.9 h 158.8 L 2632.8 1961.3 z M 1782.8 1497.5 h 698.8 v -174.4 h -698.8 V 1497.5 z" stroke-linecap="round"/>
</g>
</g>
</g>
<g transform="matrix(1 0 0 1 500 500)" id="546912">
<g style="">
		<g transform="matrix(8.1154 0 0 8.1154 152.4213 153.8487)" id="596292">
<path style="stroke: none; stroke-width: 1; stroke-dasharray: none; stroke-linecap: butt; stroke-dashoffset: 0; stroke-linejoin: miter; stroke-miterlimit: 4; is-custom-font: none; font-file-url: none; fill: rgb(0,0,0); fill-rule: nonzero; opacity: 1;" vector-effect="non-scaling-stroke" transform=" translate(-10, -10)" d="M 10 0 C 4.48 0 0 4.48 0 10 C 0 15.52 4.48 20 10 20 C 15.52 20 20 15.52 20 10 C 20 4.48 15.52 0 10 0 Z M 17.39 7 L 13.76 7 C 13.45 5.01 12.84 3.34 12.04 2.27 C 14.49 2.92 16.45 4.69 17.39 7 Z M 13 10 C 13 10.69 12.96 11.36 12.89 12 L 7.11 12 C 7.04 11.36 7 10.69 7 10 C 7 9.31 7.04 8.64 7.11 8 L 12.88 8 C 12.96 8.64 13 9.31 13 10 Z M 10 2 C 11.07 2 12.25 4.05 12.75 7 L 7.25 7 C 7.75 4.05 8.93 2 10 2 Z M 7.96 2.27 C 7.16 3.34 6.55 5.01 6.24 7 L 2.61 7 C 3.55 4.69 5.51 2.92 7.96 2.27 Z M 2 10 C 2 9.31 2.11 8.64 2.28 8 L 6.11 8 C 6.04 8.64 6 9.31 6 10 C 6 10.69 6.04 11.36 6.11 12 L 2.28 12 C 2.11 11.36 2 10.69 2 10 Z M 2.61 13 L 6.24 13 C 6.55 14.99 7.16 16.66 7.96 17.73 C 5.51 17.08 3.55 15.31 2.61 13 Z M 10 18 C 8.93 18 7.75 15.95 7.25 13 L 12.75 13 C 12.25 15.95 11.07 18 10 18 Z M 12.04 17.73 C 12.83 16.66 13.44 14.99 13.76 13 L 17.39 13 C 16.45 15.31 14.49 17.08 12.04 17.73 Z M 13.89 12 C 13.96 11.36 14 10.69 14 10 C 14 9.31 13.96 8.64 13.89 8 L 17.72 8 C 17.89 8.64 18 9.31 18 10 C 18 10.69 17.89 11.36 17.72 12 L 13.89 12 Z" stroke-linecap="round"/>
</g>
		<g transform="matrix(5.6484 0 0 5.6484 -131.9957 133.6478)" id="666739">
<path style="stroke: none; stroke-width: 1; stroke-dasharray: none; stroke-linecap: butt; stroke-dashoffset: 0; stroke-linejoin: miter; stroke-miterlimit: 4; is-custom-font: none; font-file-url: none; fill: rgb(0,0,0); fill-rule: evenodd; opacity: 1;" vector-effect="non-scaling-stroke" transform=" translate(-10, -10.5)" d="M 19 1 H 1 C 0.45 1 0 1.45 0 2 v 12 c 0 0.55 0.45 1 1 1 h 3 v 4 c 0 0.55 0.45 1 1 1 c 0.28 0 0.53 -0.11 0.71 -0.29 L 10.41 15 H 19 c 0.55 0 1 -0.45 1 -1 V 2 C 20 1.45 19.55 1 19 1 z M 4 10 c -1.1 0 -2 -0.9 -2 -2 c 0 -1.1 0.9 -2 2 -2 s 2 0.9 2 2 C 6 9.1 5.1 10 4 10 z M 10 10 c -1.1 0 -2 -0.9 -2 -2 c 0 -1.1 0.9 -2 2 -2 s 2 0.9 2 2 C 12 9.1 11.1 10 10 10 z M 16 10 c -1.1 0 -2 -0.9 -2 -2 c 0 -1.1 0.9 -2 2 -2 s 2 0.9 2 2 C 18 9.1 17.1 10 16 10 z" stroke-linecap="round"/>
</g>
		<g transform="matrix(7.2293 0 0 7.2293 -161.282 -177.168)" id="409741">
<path style="stroke: none; stroke-width: 1; stroke-dasharray: none; stroke-linecap: butt; stroke-dashoffset: 0; stroke-linejoin: miter; stroke-miterlimit: 4; is-custom-font: none; font-file-url: none; fill: rgb(0,0,0); fill-rule: evenodd; opacity: 1;" vector-effect="non-scaling-stroke" transform=" translate(-10, -10)" d="M 20 9 c 0 -0.55 -0.45 -1 -1 -1 H 5 C 4.57 8 4.21 8.27 4.07 8.65 l -0.01 0 l -3 8 l 0.01 0 C 1.03 16.76 1 16.88 1 17 c 0 0.55 0.45 1 1 1 h 14 c 0.43 0 0.79 -0.27 0.93 -0.65 l 0.01 0 l 3 -8 l -0.01 0 C 19.97 9.24 20 9.12 20 9 z M 3.07 7.63 C 3.22 7.26 3.58 7 4 7 h 14 V 5 c 0 -0.55 -0.45 -1 -1 -1 H 8.41 L 6.71 2.29 C 6.53 2.11 6.28 2 6 2 H 1 C 0.45 2 0 2.45 0 3 v 12.31 L 3.07 7.63 L 3.07 7.63 z" stroke-linecap="round"/>
</g>
		<g transform="matrix(8.1718 0 0 8.1718 -32.04 -32.8967)" id="581082">
<path style="stroke: none; stroke-width: 1; stroke-dasharray: none; stroke-linecap: butt; stroke-dashoffset: 0; stroke-linejoin: miter; stroke-miterlimit: 4; is-custom-font: none; font-file-url: none; fill: rgb(0,0,0); fill-rule: evenodd; opacity: 1;" vector-effect="non-scaling-stroke" transform=" translate(-10, -10)" d="M 12 16 h 1 c 0.55 0 1 -0.45 1 -1 V 5 c 0 -0.55 -0.45 -1 -1 -1 h -1 c -0.55 0 -1 0.45 -1 1 v 10 C 11 15.55 11.45 16 12 16 z M 19 17 H 1 c -0.55 0 -1 0.45 -1 1 c 0 0.55 0.45 1 1 1 h 18 c 0.55 0 1 -0.45 1 -1 C 20 17.45 19.55 17 19 17 z M 16 16 h 1 c 0.55 0 1 -0.45 1 -1 V 8 c 0 -0.55 -0.45 -1 -1 -1 h -1 c -0.55 0 -1 0.45 -1 1 v 7 C 15 15.55 15.45 16 16 16 z M 7 16 h 1 c 0.55 0 1 -0.45 1 -1 v -5 c 0 -0.55 -0.45 -1 -1 -1 H 7 c -0.55 0 -1 0.45 -1 1 v 5 C 6 15.55 6.45 16 7 16 z M 3 16 h 1 c 0.55 0 1 -0.45 1 -1 V 2 c 0 -0.55 -0.45 -1 -1 -1 H 3 C 2.45 1 2 1.45 2 2 v 13 C 2 15.55 2.45 16 3 16 z" stroke-linecap="round"/>
</g>
</g>
</g>
</svg>